<svg width="229" height="44" viewBox="0 0 229 44" fill="none" xmlns="http://www.w3.org/2000/svg">
<rect width="43.2" height="43.2" fill="#3E43F0"/>
<path d="M21.6 16.2021V31.3162" stroke="#F6F7EB" stroke-width="2.15917" stroke-linecap="round" stroke-linejoin="round"/>
<path d="M11.8838 28.0775C11.5974 28.0775 11.3228 27.9638 11.1204 27.7613C10.9179 27.5588 10.8042 27.2842 10.8042 26.9979V12.9633C10.8042 12.677 10.9179 12.4024 11.1204 12.2C11.3228 11.9975 11.5974 11.8838 11.8838 11.8838H17.2817C18.427 11.8838 19.5253 12.3387 20.3352 13.1486C21.145 13.9584 21.6 15.0568 21.6 16.2021C21.6 15.0568 22.055 13.9584 22.8648 13.1486C23.6747 12.3387 24.773 11.8838 25.9183 11.8838H31.3162C31.6026 11.8838 31.8772 11.9975 32.0796 12.2C32.2821 12.4024 32.3958 12.677 32.3958 12.9633V26.9979C32.3958 27.2842 32.2821 27.5588 32.0796 27.7613C31.8772 27.9638 31.6026 28.0775 31.3162 28.0775H24.8387C23.9798 28.0775 23.156 28.4187 22.5486 29.0261C21.9412 29.6335 21.6 30.4573 21.6 31.3163C21.6 30.4573 21.2588 29.6335 20.6514 29.0261C20.044 28.4187 19.2202 28.0775 18.3613 28.0775H11.8838Z" stroke="#F6F7EB" stroke-width="2.15917" stroke-linecap="round" stroke-linejoin="round"/>
<path d="M60.726 27.888C59.79 27.888 58.974 27.702 58.278 27.33C57.594 26.958 57.054 26.436 56.658 25.764C56.262 25.08 56.028 24.276 55.956 23.352L58.224 23.226C58.308 23.814 58.458 24.306 58.674 24.702C58.902 25.086 59.196 25.38 59.556 25.584C59.928 25.776 60.354 25.872 60.834 25.872C61.29 25.872 61.674 25.812 61.986 25.692C62.31 25.572 62.556 25.392 62.724 25.152C62.892 24.912 62.976 24.624 62.976 24.288C62.976 23.928 62.892 23.616 62.724 23.352C62.556 23.088 62.256 22.842 61.824 22.614C61.392 22.386 60.774 22.164 59.97 21.948C59.106 21.72 58.398 21.456 57.846 21.156C57.294 20.856 56.886 20.484 56.622 20.04C56.358 19.584 56.226 19.014 56.226 18.33C56.226 17.562 56.394 16.896 56.73 16.332C57.078 15.756 57.576 15.312 58.224 15C58.884 14.688 59.67 14.532 60.582 14.532C61.482 14.532 62.25 14.706 62.886 15.054C63.522 15.39 64.02 15.876 64.38 16.512C64.752 17.136 64.98 17.88 65.064 18.744L62.778 18.852C62.718 18.384 62.592 17.982 62.4 17.646C62.22 17.298 61.968 17.028 61.644 16.836C61.332 16.644 60.948 16.548 60.492 16.548C59.88 16.548 59.394 16.704 59.034 17.016C58.674 17.316 58.494 17.712 58.494 18.204C58.494 18.552 58.572 18.84 58.728 19.068C58.896 19.296 59.178 19.5 59.574 19.68C59.97 19.86 60.528 20.04 61.248 20.22C62.244 20.484 63.03 20.796 63.606 21.156C64.194 21.516 64.614 21.948 64.866 22.452C65.118 22.956 65.244 23.55 65.244 24.234C65.244 24.966 65.058 25.608 64.686 26.16C64.314 26.712 63.792 27.138 63.12 27.438C62.448 27.738 61.65 27.888 60.726 27.888ZM72.343 27.6C71.311 27.6 70.549 27.366 70.057 26.898C69.565 26.418 69.319 25.692 69.319 24.72V15.738H71.443V24.558C71.443 25.002 71.551 25.332 71.767 25.548C71.983 25.764 72.301 25.872 72.721 25.872H75.097V27.6H72.343ZM66.421 19.716V17.988H75.097V19.716H66.421ZM80.4139 27.816C79.4899 27.816 78.7579 27.51 78.2179 26.898C77.6899 26.274 77.4259 25.392 77.4259 24.252V17.988H79.5499V23.694C79.5499 24.498 79.6819 25.086 79.9459 25.458C80.2219 25.818 80.6359 25.998 81.1879 25.998C81.7639 25.998 82.2319 25.794 82.5919 25.386C82.9639 24.966 83.1499 24.378 83.1499 23.622V17.988H85.2919V27.6H83.3119L83.2759 24.954L83.5459 25.044C83.3899 25.932 83.0419 26.616 82.5019 27.096C81.9619 27.576 81.2659 27.816 80.4139 27.816ZM90.8789 27.816C90.0749 27.816 89.3789 27.618 88.7909 27.222C88.2029 26.814 87.7469 26.238 87.4229 25.494C87.1109 24.738 86.9549 23.838 86.9549 22.794C86.9549 21.75 87.1109 20.856 87.4229 20.112C87.7469 19.356 88.2029 18.78 88.7909 18.384C89.3789 17.976 90.0749 17.772 90.8789 17.772C91.5509 17.772 92.1329 17.928 92.6249 18.24C93.1289 18.54 93.4949 18.906 93.7229 19.338V14.82H95.8469V27.6H93.8309L93.7769 26.106C93.5249 26.61 93.1469 27.024 92.6429 27.348C92.1509 27.66 91.5629 27.816 90.8789 27.816ZM91.3829 25.908C91.8509 25.908 92.2589 25.782 92.6069 25.53C92.9669 25.278 93.2429 24.924 93.4349 24.468C93.6269 24 93.7229 23.442 93.7229 22.794C93.7229 22.134 93.6269 21.576 93.4349 21.12C93.2429 20.652 92.9669 20.298 92.6069 20.058C92.2589 19.806 91.8389 19.68 91.3469 19.68C90.6629 19.68 90.1289 19.956 89.7449 20.508C89.3609 21.048 89.1689 21.81 89.1689 22.794C89.1689 23.778 89.3609 24.546 89.7449 25.098C90.1289 25.638 90.6749 25.908 91.3829 25.908ZM98.9859 30.3V28.572H100.21C100.534 28.572 100.78 28.524 100.948 28.428C101.116 28.332 101.242 28.164 101.326 27.924L101.632 27.132H100.93L97.4919 17.988H99.7419L102.298 25.116L104.638 17.988H106.888L103.126 28.572C102.91 29.184 102.58 29.622 102.136 29.886C101.704 30.162 101.134 30.3 100.426 30.3H98.9859ZM121.842 27.6V16.872H118.278V14.82H127.638V16.872H124.074V27.6H121.842ZM131.731 27.6V17.988H133.351L133.513 20.472H133.351C133.471 19.632 133.723 19.008 134.107 18.6C134.503 18.192 135.061 17.988 135.781 17.988H137.887V19.77H135.907C135.451 19.77 135.073 19.854 134.773 20.022C134.473 20.19 134.245 20.436 134.089 20.76C133.933 21.084 133.855 21.492 133.855 21.984V27.6H131.731ZM129.355 27.6V25.872H136.825V27.6H129.355ZM129.355 19.716V17.988H132.973V19.716H129.355ZM142.412 27.816C141.812 27.816 141.272 27.708 140.792 27.492C140.312 27.276 139.928 26.97 139.64 26.574C139.352 26.166 139.208 25.686 139.208 25.134C139.208 24.318 139.46 23.688 139.964 23.244C140.48 22.788 141.218 22.458 142.178 22.254L145.184 21.624C145.184 20.952 145.04 20.442 144.752 20.094C144.476 19.734 144.038 19.554 143.438 19.554C142.886 19.554 142.46 19.686 142.16 19.95C141.86 20.214 141.662 20.562 141.566 20.994L139.352 20.868C139.532 19.944 139.976 19.2 140.684 18.636C141.404 18.06 142.31 17.772 143.402 17.772C144.71 17.772 145.688 18.12 146.336 18.816C146.984 19.512 147.308 20.484 147.308 21.732V25.314C147.308 25.554 147.356 25.722 147.452 25.818C147.548 25.902 147.68 25.944 147.848 25.944H148.316V27.6C148.244 27.612 148.124 27.624 147.956 27.636C147.8 27.66 147.638 27.672 147.47 27.672C147.014 27.672 146.624 27.594 146.3 27.438C145.988 27.282 145.748 27.048 145.58 26.736C145.412 26.412 145.322 26.016 145.31 25.548H145.58C145.52 25.98 145.346 26.37 145.058 26.718C144.77 27.054 144.398 27.324 143.942 27.528C143.498 27.72 142.988 27.816 142.412 27.816ZM142.79 26.16C143.306 26.16 143.744 26.07 144.104 25.89C144.464 25.698 144.734 25.434 144.914 25.098C145.094 24.75 145.184 24.336 145.184 23.856V23.208L142.79 23.712C142.274 23.808 141.914 23.964 141.71 24.18C141.518 24.384 141.422 24.66 141.422 25.008C141.422 25.368 141.542 25.65 141.782 25.854C142.022 26.058 142.358 26.16 142.79 26.16ZM154.335 27.816C153.423 27.816 152.625 27.606 151.941 27.186C151.257 26.766 150.723 26.184 150.339 25.44C149.955 24.684 149.763 23.802 149.763 22.794C149.763 21.786 149.955 20.91 150.339 20.166C150.723 19.41 151.257 18.822 151.941 18.402C152.625 17.982 153.423 17.772 154.335 17.772C155.079 17.772 155.745 17.916 156.333 18.204C156.933 18.492 157.425 18.906 157.809 19.446C158.205 19.974 158.457 20.604 158.565 21.336L156.423 21.462C156.291 20.886 156.045 20.448 155.685 20.148C155.325 19.836 154.881 19.68 154.353 19.68C153.609 19.68 153.027 19.962 152.607 20.526C152.187 21.078 151.977 21.834 151.977 22.794C151.977 23.754 152.187 24.516 152.607 25.08C153.027 25.632 153.609 25.908 154.353 25.908C154.881 25.908 155.331 25.746 155.703 25.422C156.087 25.098 156.345 24.624 156.477 24L158.619 24.126C158.499 24.87 158.241 25.518 157.845 26.07C157.461 26.622 156.963 27.054 156.351 27.366C155.751 27.666 155.079 27.816 154.335 27.816ZM160.39 27.6V14.82H162.514V22.506L166.51 17.988H169.12L165.43 22.092L169.282 27.6H166.816L164.026 23.478L162.514 25.08V27.6H160.39ZM175.013 27.816C174.113 27.816 173.321 27.612 172.637 27.204C171.965 26.796 171.443 26.214 171.071 25.458C170.699 24.702 170.513 23.814 170.513 22.794C170.513 21.786 170.699 20.91 171.071 20.166C171.443 19.41 171.959 18.822 172.619 18.402C173.291 17.982 174.077 17.772 174.977 17.772C175.841 17.772 176.603 17.976 177.263 18.384C177.935 18.792 178.457 19.374 178.829 20.13C179.213 20.886 179.405 21.786 179.405 22.83V23.388H172.709C172.769 24.204 173.003 24.828 173.411 25.26C173.831 25.692 174.377 25.908 175.049 25.908C175.565 25.908 175.991 25.788 176.327 25.548C176.675 25.296 176.915 24.972 177.047 24.576L179.225 24.738C178.925 25.698 178.415 26.454 177.695 27.006C176.975 27.546 176.081 27.816 175.013 27.816ZM172.727 21.84H177.101C177.041 21.108 176.819 20.568 176.435 20.22C176.051 19.86 175.559 19.68 174.959 19.68C174.359 19.68 173.861 19.866 173.465 20.238C173.081 20.598 172.835 21.132 172.727 21.84ZM183.696 27.6V17.988H185.316L185.478 20.472H185.316C185.436 19.632 185.688 19.008 186.072 18.6C186.468 18.192 187.026 17.988 187.746 17.988H189.852V19.77H187.872C187.416 19.77 187.038 19.854 186.738 20.022C186.438 20.19 186.21 20.436 186.054 20.76C185.898 21.084 185.82 21.492 185.82 21.984V27.6H183.696ZM181.32 27.6V25.872H188.79V27.6H181.32ZM181.32 19.716V17.988H184.938V19.716H181.32Z" fill="#3E43F0"/>
</svg>
